<?xml version="1.0" standalone="no"?>
<!DOCTYPE svg PUBLIC "-//W3C//DTD SVG 20010904//EN"
 "http://www.w3.org/TR/2001/REC-SVG-20010904/DTD/svg10.dtd">
<svg version="1.0" xmlns="http://www.w3.org/2000/svg"
 width="1024.000000pt" height="1024.000000pt" viewBox="0 0 1024.000000 1024.000000"
 preserveAspectRatio="xMidYMid meet">

<g transform="translate(0.000000,1024.000000) scale(0.100000,-0.100000)"
fill="#000000" stroke="none">
<path d="M4635 7374 c-82 -12 -98 -17 -130 -46 -20 -17 -85 -103 -146 -191
-134 -195 -132 -192 -115 -206 9 -8 258 -10 887 -9 867 3 874 3 873 23 0 22
-196 310 -247 364 -61 64 -51 63 -597 66 -272 2 -508 1 -525 -1z"/>
<path d="M3440 7090 c-16 -16 -20 -33 -20 -83 0 -36 5 -68 12 -75 9 -9 94 -12
323 -12 229 0 314 3 323 12 7 7 12 39 12 75 0 51 -4 66 -22 83 -21 19 -34 20
-315 20 -280 0 -294 -1 -313 -20z"/>
<path d="M3115 6801 c-85 -39 -125 -110 -125 -221 l0 -70 555 0 556 0 63 54
c89 75 169 128 299 196 l112 60 -710 0 c-670 0 -712 -1 -750 -19z"/>
<path d="M5765 6767 c126 -66 221 -128 309 -200 l68 -57 554 1 554 0 0 75 c0
83 -18 129 -67 176 -63 60 -37 58 -810 58 l-708 0 100 -53z"/>
<path d="M4992 6789 c-330 -32 -653 -196 -872 -444 -158 -178 -272 -407 -317
-632 -21 -108 -23 -337 -4 -443 83 -463 432 -866 886 -1023 282 -98 615 -94
895 10 412 152 738 512 838 923 74 303 39 599 -106 883 -205 406 -618 684
-1077 727 -120 11 -122 11 -243 -1z m115 -85 c-3 -3 -28 -6 -55 -6 -28 1 -58
-5 -68 -13 -17 -13 -16 -14 21 -15 31 0 37 3 25 11 -12 9 -12 10 3 5 10 -3 24
-6 30 -7 7 0 3 -4 -8 -9 -27 -12 -95 -12 -95 -1 0 14 -22 18 -55 10 l-30 -8
33 3 c63 5 31 -19 -50 -38 -300 -67 -573 -255 -744 -512 -76 -115 -140 -255
-168 -370 -13 -54 -25 -87 -25 -72 -1 29 -16 45 -24 26 -16 -39 -4 32 19 108
100 346 365 645 703 794 79 34 248 80 320 85 24 2 46 6 49 9 3 4 32 6 65 6 33
0 58 -3 54 -6z m-125 -271 c-18 -2 -30 -7 -28 -11 2 -4 -9 -8 -25 -9 -67 -4
-78 -6 -74 -13 3 -5 -5 -6 -17 -3 -17 3 -19 2 -9 -5 10 -7 10 -11 1 -17 -7 -4
-16 -1 -21 6 -5 8 -9 11 -9 7 0 -3 -2 -13 -5 -20 -4 -10 5 -14 37 -15 32 -1
38 1 23 7 -19 8 -19 9 2 9 12 1 23 -3 25 -9 2 -5 14 -6 28 -3 l25 7 -25 8
c-17 5 -13 6 13 2 30 -4 37 -2 32 8 -6 10 -5 11 6 1 7 -7 22 -14 34 -14 11 -1
-5 -6 -35 -11 -30 -5 -66 -11 -80 -14 -14 -3 -33 -6 -42 -7 -9 -1 -15 -3 -13
-6 3 -2 -32 -21 -78 -41 -112 -50 -188 -104 -277 -196 -41 -42 -88 -90 -105
-107 -16 -16 -30 -37 -30 -46 0 -9 -6 -15 -13 -13 -8 1 -11 -2 -8 -7 8 -13
-25 -82 -36 -75 -4 3 -5 -1 -2 -9 2 -7 -4 -35 -16 -61 -11 -26 -21 -57 -21
-69 -1 -13 -4 -8 -8 13 -5 25 -3 41 8 54 15 18 15 19 -2 13 -15 -6 -16 -4 -6
15 8 16 9 23 1 26 -6 2 -8 11 -5 20 4 13 3 14 -5 3 -5 -7 -8 -23 -5 -35 3 -19
3 -19 -7 2 -8 19 -3 36 25 93 20 38 40 69 46 69 5 0 8 4 5 9 -8 13 83 129 155
196 79 73 175 139 191 129 6 -4 8 -3 5 3 -8 13 38 34 60 27 14 -4 15 -3 5 4
-25 17 207 91 283 89 30 0 30 0 -3 -4z m71 -60 c-7 -2 -19 -2 -25 0 -7 3 -2 5
12 5 14 0 19 -2 13 -5z m75 0 c-10 -2 -26 -2 -35 0 -10 3 -2 5 17 5 19 0 27
-2 18 -5z m90 0 c-10 -2 -26 -2 -35 0 -10 3 -2 5 17 5 19 0 27 -2 18 -5z m-95
-119 c46 -9 19 -20 -82 -33 -221 -28 -409 -132 -525 -290 -57 -77 -112 -192
-126 -263 l-13 -65 -29 11 c-15 6 -28 14 -28 19 0 4 9 3 19 -3 12 -6 22 -6 25
-1 3 5 -5 12 -18 15 -19 5 -22 11 -18 32 3 19 7 23 14 12 6 -9 7 -6 3 9 -7 26
4 75 15 68 5 -3 6 3 4 12 -5 23 47 129 63 126 6 -1 14 4 17 13 3 8 2 12 -4 9
-6 -3 -10 -2 -10 4 0 12 122 134 185 186 39 32 179 100 260 125 76 25 171 30
248 14z m80 -191 c-7 -2 -21 -2 -30 0 -10 3 -4 5 12 5 17 0 24 -2 18 -5z m60
-10 c-7 -2 -19 -2 -25 0 -7 3 -2 5 12 5 14 0 19 -2 13 -5z m-353 -17 c0 -2 -7
-7 -16 -10 -8 -3 -12 -2 -9 4 6 10 25 14 25 6z m475 -16 c20 -11 41 -17 47
-14 7 4 8 2 4 -4 -4 -7 -1 -12 9 -12 9 0 13 -5 10 -10 -5 -8 -11 -7 -21 1 -7
6 -39 22 -71 35 -35 14 -49 24 -36 24 12 0 39 -9 58 -20z m-875 6 c0 -2 -8
-10 -17 -17 -16 -13 -17 -12 -4 4 13 16 21 21 21 13z m330 -21 c0 -2 -13 -11
-30 -20 -38 -19 -40 -11 -2 9 31 17 32 18 32 11z m676 -27 c2 -14 -1 -16 -16
-8 -12 7 -21 7 -25 0 -3 -5 6 -12 20 -16 13 -3 22 -10 19 -16 -3 -5 3 -4 15 4
17 10 25 10 41 0 11 -6 28 -12 38 -12 11 0 27 -9 37 -20 10 -11 27 -22 38 -26
16 -5 17 -8 6 -15 -11 -7 -11 -9 2 -9 34 0 64 -25 67 -55 2 -17 8 -32 13 -33
19 -7 39 -34 46 -60 3 -15 15 -33 25 -40 10 -7 18 -22 18 -33 0 -11 10 -24 24
-30 13 -6 31 -26 40 -45 18 -39 20 -48 7 -40 -5 4 -7 -3 -4 -15 5 -16 8 -18
15 -7 6 9 8 1 6 -24 -2 -21 0 -38 4 -38 4 0 8 8 9 18 0 13 2 14 6 2 3 -8 10
-18 15 -21 10 -7 -11 -159 -23 -159 -5 0 -6 -6 -3 -13 7 -19 -58 -167 -103
-235 -52 -78 -166 -194 -184 -188 -7 3 -30 -8 -49 -25 l-35 -31 38 27 c21 15
41 25 43 22 3 -3 -11 -17 -32 -31 -27 -18 -41 -22 -50 -15 -14 12 -66 1 -58
-12 3 -5 1 -9 -5 -9 -5 0 -13 5 -16 10 -4 6 -11 8 -16 4 -5 -3 -7 -8 -5 -12 5
-8 0 -9 -162 -18 -91 -5 -134 -3 -163 6 -21 7 -39 17 -39 22 0 4 -5 8 -11 8
-5 0 -26 11 -46 25 -20 13 -39 22 -43 20 -4 -2 -13 7 -20 21 -8 13 -20 22 -27
20 -14 -6 -19 9 -5 17 4 2 2 3 -4 1 -6 -1 -23 4 -38 11 -15 8 -32 13 -39 11
-7 -1 -9 -1 -4 1 4 3 -14 15 -40 28 -25 13 -49 22 -53 20 -4 -2 -7 2 -7 10 0
11 11 9 46 -10 77 -41 115 -53 208 -66 121 -17 230 3 352 63 161 80 267 211
312 386 33 129 18 271 -40 385 -17 32 -28 66 -25 75 5 13 4 14 -4 3 -11 -15
-27 2 -17 19 4 6 2 9 -3 8 -14 -4 -153 130 -142 137 6 4 8 11 4 17 -4 6 3 8
16 6 13 -1 24 -11 26 -20z m-398 -97 c-5 -80 -41 -167 -72 -177 -11 -4 -105
-47 -208 -95 -103 -49 -194 -89 -202 -89 -20 0 -20 29 -1 103 21 82 47 127
111 196 76 83 189 140 295 149 86 8 83 11 77 -87z m-427 16 c-10 -9 -11 -8 -5
6 3 10 9 15 12 12 3 -3 0 -11 -7 -18z m-26 -7 c-1 -11 -8 -26 -15 -33 -12 -10
-12 -9 -2 4 6 9 9 19 6 22 -3 3 -3 10 1 16 9 16 12 14 10 -9z m-47 -80 c-7
-10 -14 -17 -17 -15 -4 4 18 35 25 35 2 0 -1 -9 -8 -20z m-440 -68 c-6 -24
-13 -41 -15 -38 -2 2 1 23 7 46 6 23 13 40 15 38 2 -2 -1 -23 -7 -46z m39 -34
c-3 -8 -6 -5 -6 6 -1 11 2 17 5 13 3 -3 4 -12 1 -19z m-330 -65 c-3 -10 -5 -2
-5 17 0 19 2 27 5 18 2 -10 2 -26 0 -35z m20 25 c-3 -8 -6 -5 -6 6 -1 11 2 17
5 13 3 -3 4 -12 1 -19z m12 -65 c-1 -42 -2 -44 -9 -21 -7 25 -3 68 6 68 2 0 4
-21 3 -47z m-39 -38 l-7 -50 -2 46 c0 25 2 49 6 52 10 11 11 5 3 -48z m23 -35
c3 -11 1 -18 -4 -14 -5 3 -9 12 -9 20 0 20 7 17 13 -6z m304 -2 c-3 -8 -6 -5
-6 6 -1 11 2 17 5 13 3 -3 4 -12 1 -19z m1780 -60 c-3 -7 -5 -2 -5 12 0 14 2
19 5 13 2 -7 2 -19 0 -25z m-393 -197 c9 -13 -38 -89 -90 -146 -36 -40 -41
-44 -26 -17 11 19 29 40 41 48 12 9 18 20 14 27 -4 7 -9 21 -10 32 -2 15 -1
16 6 6 6 -10 11 -6 19 15 6 16 11 23 11 16 1 -7 -4 -22 -10 -34 -6 -11 -8 -22
-6 -25 9 -8 39 58 33 73 -6 15 9 20 18 5z m-923 -203 c-11 -11 -13 -10 -6 0 4
8 -1 23 -11 35 -18 22 -18 22 6 0 20 -19 22 -25 11 -35z m70 -45 c13 -16 12
-17 -3 -4 -10 7 -18 15 -18 17 0 8 8 3 21 -13z m1119 -67 c0 -2 -8 -10 -17
-17 -16 -13 -17 -12 -4 4 13 16 21 21 21 13z m-30 -39 c0 -2 -12 -14 -27 -28
l-28 -24 24 28 c23 25 31 32 31 24z m-883 -33 c-3 -3 -12 -4 -19 -1 -8 3 -5 6
6 6 11 1 17 -2 13 -5z m923 -27 c0 -2 -10 -12 -22 -23 l-23 -19 19 23 c18 21
26 27 26 19z m-120 -21 c0 -2 -8 -10 -17 -17 -16 -13 -17 -12 -4 4 13 16 21
21 21 13z m-40 -34 c0 -4 -10 -13 -22 -21 -23 -14 -23 -14 -4 8 20 22 26 25
26 13z m110 5 c0 -2 -12 -14 -27 -28 l-28 -24 24 28 c23 25 31 32 31 24z
m-245 -26 c3 -5 2 -12 -3 -15 -5 -3 -9 1 -9 9 0 17 3 19 12 6z"/>
<path d="M4680 6300 c8 -5 20 -10 25 -10 6 0 3 5 -5 10 -8 5 -19 10 -25 10 -5
0 -3 -5 5 -10z"/>
<path d="M4294 5981 c1 -9 -4 -15 -11 -14 -8 2 -10 -4 -6 -14 5 -12 3 -14 -7
-8 -9 5 -11 4 -6 -4 4 -6 13 -9 19 -5 7 3 5 0 -4 -8 -14 -12 -14 -15 3 -33 18
-19 19 -19 12 -1 -4 11 -3 17 2 14 5 -4 9 4 9 17 0 13 -4 21 -9 18 -5 -3 -6 0
-4 8 3 8 10 13 15 12 5 -1 9 6 9 16 0 10 -5 18 -12 18 -6 0 -11 -7 -10 -16z"/>
<path d="M4237 5884 c-3 -5 1 -14 8 -21 10 -10 15 -9 19 4 4 9 4 18 1 21 -3 3
-5 -1 -5 -9 0 -12 -2 -12 -9 0 -5 7 -11 9 -14 5z"/>
<path d="M4456 5953 c-6 -14 -5 -15 5 -6 7 7 10 15 7 18 -3 3 -9 -2 -12 -12z"/>
<path d="M5580 5891 c0 -6 4 -13 10 -16 6 -3 7 1 4 9 -7 18 -14 21 -14 7z"/>
<path d="M5957 5423 c-4 -3 -7 -13 -7 -21 0 -12 3 -12 15 -2 8 7 15 16 15 21
0 11 -14 12 -23 2z"/>
<path d="M1880 6640 l0 -50 45 0 45 0 0 50 0 50 -45 0 -45 0 0 -50z"/>
<path d="M8270 6640 l0 -50 50 0 50 0 0 50 0 50 -50 0 -50 0 0 -50z"/>
<path d="M1474 6571 c-2 -2 -4 -24 -4 -48 l0 -43 46 0 45 0 -3 48 -3 47 -38 0
c-21 0 -41 -2 -43 -4z m21 -41 c3 -5 1 -10 -4 -10 -6 0 -11 5 -11 10 0 6 2 10
4 10 3 0 8 -4 11 -10z m5 -30 c0 -5 -5 -10 -11 -10 -5 0 -7 5 -4 10 3 6 8 10
11 10 2 0 4 -4 4 -10z"/>
<path d="M8680 6530 l0 -50 50 0 50 0 0 50 0 50 -50 0 -50 0 0 -50z"/>
<path d="M7963 6453 c-8 -3 -13 -24 -13 -54 l0 -49 50 0 50 0 0 50 c0 45 -2
50 -22 51 -13 0 -30 2 -38 3 -8 2 -21 1 -27 -1z"/>
<path d="M2190 6406 c0 -32 5 -46 17 -51 10 -3 19 -2 21 3 1 5 16 7 31 4 29
-4 29 -3 29 42 l0 46 -49 0 -49 0 0 -44z m70 14 c0 -10 4 -20 10 -22 5 -1 6
-9 1 -16 -4 -7 -15 -10 -24 -6 -10 3 -14 11 -10 18 13 20 11 35 -3 29 -8 -3
-14 -1 -14 4 0 5 9 9 20 10 13 1 20 -4 20 -17z m-40 -35 c0 -8 -4 -15 -10 -15
-5 0 -7 7 -4 15 4 8 8 15 10 15 2 0 4 -7 4 -15z"/>
<path d="M2780 6307 l0 -115 47 -4 c26 -2 62 -2 80 0 l33 4 0 108 c0 85 -3
109 -14 113 -9 4 -13 1 -10 -6 2 -7 0 -46 -5 -87 l-8 -75 -2 86 -1 86 -60 2
-60 2 0 -114z m87 -73 c-3 -3 -12 -4 -19 -1 -8 3 -5 6 6 6 11 1 17 -2 13 -5z
m-10 -20 c-3 -3 -12 -4 -19 -1 -8 3 -5 6 6 6 11 1 17 -2 13 -5z m70 -10 c-3
-3 -12 -4 -19 -1 -8 3 -5 6 6 6 11 1 17 -2 13 -5z"/>
<path d="M2990 6035 l0 -385 -190 0 -190 0 0 -30 0 -30 -150 0 -150 0 0 -75 0
-75 403 0 404 0 6 128 c6 112 24 234 43 295 4 13 2 17 -5 13 -6 -4 -11 -15
-11 -25 0 -10 -7 -24 -15 -31 -8 -7 -15 -18 -15 -24 0 -6 5 -4 10 4 8 13 10
13 10 -2 0 -9 -4 -19 -10 -23 -5 -3 -6 -13 -3 -22 5 -13 3 -13 -14 2 -12 10
-19 25 -16 36 3 11 1 19 -5 19 -5 0 -15 17 -21 38 -10 33 -10 34 -6 5 5 -34
-11 -56 -18 -26 -2 10 -4 1 -4 -19 -1 -21 3 -35 8 -32 5 3 7 10 4 15 -4 5 -1
9 4 9 15 0 14 -17 -1 -27 -27 -16 -36 -11 -35 20 2 63 -7 147 -15 147 -4 0 -8
75 -8 168 0 111 4 162 10 152 8 -12 10 -11 10 7 0 33 21 74 55 108 l30 30 158
3 c115 3 157 0 157 -8 0 -7 -7 -10 -15 -7 -8 4 -17 2 -20 -4 -4 -5 -3 -9 2 -8
20 3 25 -2 13 -16 -7 -8 -10 -15 -7 -15 2 0 17 16 31 35 l27 35 -230 0 -231 0
0 -385z m107 -377 c-3 -8 -6 -5 -6 6 -1 11 2 17 5 13 3 -3 4 -12 1 -19z m-74
-38 c-3 -12 -8 -19 -11 -16 -5 6 5 36 12 36 2 0 2 -9 -1 -20z m86 -162 c1 -5
-3 -8 -9 -8 -5 0 -10 12 -9 28 0 24 1 25 9 7 5 -11 9 -23 9 -27z"/>
<path d="M3484 6398 c-11 -13 -28 -34 -39 -48 l-20 -25 21 18 c11 9 24 14 29
10 4 -5 5 -2 1 5 -5 8 1 23 15 38 12 13 20 24 17 24 -2 0 -13 -10 -24 -22z"/>
<path d="M3558 6413 c23 -2 61 -2 85 0 23 2 4 4 -43 4 -47 0 -66 -2 -42 -4z"/>
<path d="M6267 6373 c188 -228 294 -510 319 -845 l6 -88 250 0 251 0 -7 108
c-19 298 -110 560 -274 787 l-57 80 -264 3 -263 2 39 -47z"/>
<path d="M6800 6415 c0 -2 25 -40 56 -82 157 -217 264 -543 264 -800 l0 -93
405 0 406 0 -3 73 -3 72 -145 5 -145 5 -3 27 -3 26 -190 7 -189 8 0 378 0 379
-225 0 c-124 0 -225 -2 -225 -5z"/>
<path d="M7300 6300 l0 -120 80 0 c63 0 82 3 86 15 4 9 3 63 -1 120 l-7 105
-79 0 -79 0 0 -120z"/>
<path d="M1880 6260 l0 -50 45 0 45 0 0 50 0 50 -45 0 -45 0 0 -50z m57 4 c-3
-3 -12 -4 -19 -1 -8 3 -5 6 6 6 11 1 17 -2 13 -5z m-7 -40 c0 -2 -7 -4 -15 -4
-8 0 -15 4 -15 10 0 5 7 7 15 4 8 -4 15 -8 15 -10z m30 12 c0 -3 -4 -8 -10
-11 -5 -3 -10 -1 -10 4 0 6 5 11 10 11 6 0 10 -2 10 -4z"/>
<path d="M2610 6301 c0 -4 24 -7 54 -6 l54 3 0 -49 1 -49 -42 0 c-23 0 -37 4
-31 8 8 5 7 11 -4 22 -14 13 -15 12 -9 -3 3 -9 2 -17 -3 -17 -5 0 -11 10 -13
23 -3 17 -5 15 -6 -9 l-1 -31 60 -2 60 -2 0 61 0 60 -60 0 c-33 0 -60 -4 -60
-9z"/>
<path d="M7510 6245 l0 -66 63 3 62 3 3 63 3 62 -66 0 -65 0 0 -65z"/>
<path d="M8270 6260 l0 -50 50 0 50 0 0 50 0 50 -50 0 -50 0 0 -50z"/>
<path d="M3342 6288 c-14 -18 -53 -98 -48 -98 2 0 18 25 34 55 30 54 34 67 14
43z"/>
<path d="M3391 6267 c-13 -21 -12 -21 5 -5 10 10 16 20 13 22 -3 3 -11 -5 -18
-17z"/>
<path d="M2610 6270 c0 -5 7 -7 15 -4 8 4 15 8 15 10 0 2 -7 4 -15 4 -8 0 -15
-4 -15 -10z"/>
<path d="M2680 6263 c0 -23 15 -39 24 -25 3 5 -1 18 -9 28 -14 18 -14 18 -15
-3z"/>
<path d="M3335 6173 c-28 -47 -42 -98 -24 -87 5 3 7 10 3 15 -3 5 9 32 26 60
17 28 29 53 27 56 -3 2 -17 -17 -32 -44z"/>
<path d="M1313 6202 c-20 -3 -23 -9 -23 -48 l0 -44 45 0 45 0 0 49 c0 53 0 52
-67 43z"/>
<path d="M2320 6145 l0 -55 61 0 60 0 -2 55 -2 55 -59 0 -58 0 0 -55z m103 26
c3 -14 -2 -20 -21 -24 -24 -5 -25 -4 -9 8 22 16 22 22 0 28 -14 4 -14 5 3 6
14 1 24 -6 27 -18z m4 -37 c-3 -3 -12 -4 -19 -1 -8 3 -5 6 6 6 11 1 17 -2 13
-5z"/>
<path d="M7800 6145 l0 -55 43 -2 c23 0 51 -1 62 -2 11 0 20 5 19 12 -1 6 -2
32 -2 57 l-2 45 -60 0 -60 0 0 -55z"/>
<path d="M8860 6155 l0 -45 45 0 45 0 0 45 0 45 -45 0 -45 0 0 -45z"/>
<path d="M3260 6139 c-7 -11 -10 -23 -7 -25 2 -2 9 7 15 21 14 30 7 33 -8 4z"/>
<path d="M2020 6040 l0 -50 55 0 55 0 0 50 0 50 -55 0 -55 0 0 -50z"/>
<path d="M8100 6066 c0 -13 3 -38 6 -55 7 -31 8 -32 58 -29 l51 3 3 53 3 52
-60 0 c-58 0 -61 -1 -61 -24z"/>
<path d="M3226 6065 c-9 -26 -7 -32 5 -12 6 10 9 21 6 23 -2 3 -7 -2 -11 -11z"/>
<path d="M3266 6035 c-9 -26 -7 -32 5 -12 6 10 9 21 6 23 -2 3 -7 -2 -11 -11z"/>
<path d="M3015 5999 c-4 -6 -5 -12 -2 -15 2 -3 7 2 10 11 7 17 1 20 -8 4z"/>
<path d="M3191 5979 c-6 -18 -9 -34 -7 -36 2 -2 9 10 15 28 6 18 9 34 7 36 -2
2 -9 -10 -15 -28z"/>
<path d="M3242 5973 c-36 -93 -76 -275 -69 -314 3 -17 5 -13 6 14 0 21 4 36 9
34 4 -3 8 15 9 39 1 24 8 67 16 96 9 29 21 72 27 96 6 23 15 40 20 37 6 -3 7
1 4 9 -8 21 -10 20 -22 -11z"/>
<path d="M2470 5920 l0 -60 60 0 60 0 0 60 0 60 -60 0 -60 0 0 -60z"/>
<path d="M7650 5920 l0 -60 59 0 c65 0 68 3 67 75 l-1 40 -62 3 -63 3 0 -61z"/>
<path d="M1750 5900 l0 -50 55 0 55 0 0 50 0 50 -55 0 -55 0 0 -50z m24 -5
c-4 -8 -8 -15 -10 -15 -2 0 -4 7 -4 15 0 8 4 15 10 15 5 0 7 -7 4 -15z"/>
<path d="M8380 5900 l0 -50 55 0 55 0 0 50 0 50 -55 0 -55 0 0 -50z"/>
<path d="M2780 5814 l0 -115 77 3 c63 2 78 6 81 20 2 12 -5 17 -25 20 -15 2
-27 6 -25 11 1 4 3 22 3 40 l2 32 6 -34 c3 -19 12 -36 19 -39 9 -3 12 19 12
87 l0 91 -75 0 -75 0 0 -116z m127 54 c-3 -8 -6 -5 -6 6 -1 11 2 17 5 13 3 -3
4 -12 1 -19z m-44 -135 c-7 -2 -19 -2 -25 0 -7 3 -2 5 12 5 14 0 19 -2 13 -5z
m50 -10 c-7 -2 -19 -2 -25 0 -7 3 -2 5 12 5 14 0 19 -2 13 -5z"/>
<path d="M7300 5815 l0 -115 80 0 80 0 0 115 0 115 -80 0 -80 0 0 -115z"/>
<path d="M1490 5855 c0 -29 5 -45 13 -46 6 -1 27 -3 45 -5 l32 -4 0 50 0 50
-45 0 -45 0 0 -45z"/>
<path d="M8659 5893 c-9 -83 -9 -84 52 -87 l39 -1 0 48 0 47 -45 0 c-25 0 -45
-3 -46 -7z"/>
<path d="M2150 5735 l0 -85 65 0 65 0 0 85 0 85 -65 0 -65 0 0 -85z"/>
<path d="M2610 5760 l0 -60 61 0 c34 0 58 4 55 9 -4 5 0 12 6 14 9 4 9 6 1 6
-8 1 -9 10 -2 33 16 56 14 58 -56 58 l-65 0 0 -60z m26 21 c0 -11 -4 -17 -8
-15 -4 3 -8 12 -8 20 0 8 4 14 8 14 4 0 8 -9 8 -19z m88 4 c-4 -8 -9 -15 -13
-15 -4 0 -8 7 -8 15 0 8 6 15 13 15 8 0 11 -6 8 -15z"/>
<path d="M7500 5760 l0 -60 65 0 65 0 0 60 0 60 -65 0 -65 0 0 -60z"/>
<path d="M7960 5730 l0 -90 65 0 65 0 0 90 0 90 -65 0 -65 0 0 -90z"/>
<path d="M2320 5710 l0 -60 45 0 c42 0 45 2 45 28 0 20 3 23 9 13 5 -8 7 -20
4 -28 -3 -7 0 -13 6 -13 7 0 11 23 11 60 l0 60 -60 0 -60 0 0 -60z m100 40 c0
-5 -5 -10 -11 -10 -5 0 -7 5 -4 10 3 6 8 10 11 10 2 0 4 -4 4 -10z m-27 -87
c-7 -2 -21 -2 -30 0 -10 3 -4 5 12 5 17 0 24 -2 18 -5z"/>
<path d="M7800 5705 l0 -65 60 0 60 0 0 65 0 65 -60 0 -60 0 0 -65z"/>
<path d="M1100 5685 l0 -45 48 0 47 0 2 45 2 45 -49 0 -50 0 0 -45z"/>
<path d="M9040 5685 l0 -45 50 0 50 0 0 45 0 45 -50 0 -50 0 0 -45z"/>
<path d="M1890 5640 l0 -60 55 0 55 0 0 60 0 60 -55 0 -55 0 0 -60z"/>
<path d="M8240 5640 l0 -60 55 0 55 0 0 60 0 60 -55 0 -55 0 0 -60z"/>
<path d="M3651 5624 c0 -11 3 -14 6 -6 3 7 2 16 -1 19 -3 4 -6 -2 -5 -13z"/>
<path d="M3160 5530 l0 -90 193 2 192 2 -160 6 c-201 9 -195 9 -195 18 0 4 19
7 43 6 30 -1 33 0 10 3 -35 4 -46 22 -15 24 11 1 8 4 -8 8 -18 5 -26 15 -28
36 -4 50 -12 75 -22 75 -6 0 -10 -38 -10 -90z m17 -37 c-2 -21 -4 -4 -4 37 0
41 2 58 4 38 2 -21 2 -55 0 -75z"/>
<path d="M3651 5584 c0 -11 3 -14 6 -6 3 7 2 16 -1 19 -3 4 -6 -2 -5 -13z"/>
<path d="M1640 5510 l0 -50 50 0 50 0 0 50 0 50 -50 0 -50 0 0 -50z"/>
<path d="M8500 5510 l0 -50 50 0 50 0 0 50 0 50 -50 0 -50 0 0 -50z"/>
<path d="M1416 5443 c-3 -4 -6 -26 -6 -50 l0 -43 51 0 50 0 -3 48 -3 47 -41 2
c-23 1 -45 -1 -48 -4z"/>
<path d="M3628 5443 c7 -3 16 -2 19 1 4 3 -2 6 -13 5 -11 0 -14 -3 -6 -6z"/>
<path d="M8735 5442 c-3 -3 -5 -25 -5 -49 l0 -43 51 0 50 0 -3 48 -3 47 -43 1
c-23 0 -44 -2 -47 -4z"/>
<path d="M2460 5290 l0 -70 65 0 65 0 0 70 0 70 -65 0 -65 0 0 -70z"/>
<path d="M2780 5205 l0 -155 75 0 75 0 0 155 0 155 -75 0 -75 0 0 -155z"/>
<path d="M2990 4980 l0 -380 191 0 c163 0 190 2 186 14 -4 10 -1 13 8 9 8 -3
12 -9 9 -14 -3 -5 0 -9 5 -9 20 0 11 25 -30 85 -106 155 -229 487 -229 619 0
50 -8 56 -76 56 l-64 0 0 -380z"/>
<path d="M3172 5288 c13 -108 46 -230 93 -343 45 -108 128 -249 139 -238 4 4
5 1 2 -7 -3 -8 9 -32 27 -54 31 -37 38 -40 95 -44 34 -2 100 -1 147 3 76 6 83
8 69 22 -10 10 -14 30 -13 59 3 43 -12 74 -37 74 -8 0 -14 -9 -14 -20 0 -24
-15 -27 -24 -4 -9 25 -7 64 4 64 6 0 10 9 10 20 0 11 -5 20 -10 20 -25 0 -60
50 -60 85 0 24 -4 35 -15 35 -11 0 -15 12 -15 50 0 41 -5 54 -25 72 -14 12
-25 32 -25 45 0 13 -6 23 -13 23 -17 0 -42 31 -50 61 -11 38 -21 49 -63 64
-36 13 -37 14 -10 15 20 0 27 4 23 14 -4 9 1 17 11 19 9 3 0 5 -20 6 -20 0
-39 4 -42 9 -2 4 39 9 92 10 163 6 116 12 -90 12 l-194 0 8 -72z m341 -663
c-3 -9 -8 -14 -10 -11 -3 3 -2 9 2 15 9 16 15 13 8 -4z"/>
<path d="M6580 5334 c0 -49 -51 -256 -86 -346 -44 -117 -128 -267 -193 -348
-11 -14 -21 -28 -21 -33 0 -4 114 -6 252 -5 l253 3 48 70 c62 89 158 286 190
390 22 70 57 244 57 282 0 10 -49 13 -250 13 l-250 0 0 -26z"/>
<path d="M7115 5313 c-27 -213 -114 -451 -229 -628 -25 -38 -46 -73 -46 -77 0
-9 371 -11 394 -2 14 5 16 48 16 380 l0 374 -64 0 -65 0 -6 -47z"/>
<path d="M7310 5200 l0 -160 75 0 75 0 0 160 0 160 -75 0 -75 0 0 -160z"/>
<path d="M7650 5290 l0 -70 65 0 c69 0 68 -1 68 55 0 8 -1 31 -2 50 l-1 35
-65 0 -65 0 0 -70z"/>
<path d="M3651 5324 c0 -11 3 -14 6 -6 3 7 2 16 -1 19 -3 4 -6 -2 -5 -13z"/>
<path d="M1890 5240 l0 -60 55 0 55 0 0 60 0 60 -55 0 -55 0 0 -60z"/>
<path d="M8242 5243 l3 -58 53 -3 52 -3 0 60 0 61 -55 0 -56 0 3 -57z"/>
<path d="M2160 5135 l0 -105 140 0 140 0 0 75 0 75 -75 0 -75 0 0 30 0 30 -65
0 -65 0 0 -105z"/>
<path d="M7950 5210 l0 -30 -75 0 -75 0 0 -75 0 -75 140 0 140 0 0 105 0 105
-65 0 -65 0 0 -30z"/>
<path d="M2610 5115 l0 -65 60 0 60 0 0 65 0 65 -60 0 -60 0 0 -65z"/>
<path d="M7507 5173 c-3 -5 -4 -35 -3 -68 l1 -60 63 -3 62 -3 0 71 0 70 -59 0
c-33 0 -62 -3 -64 -7z"/>
<path d="M1640 5120 l0 -50 50 0 50 0 0 50 0 50 -50 0 -50 0 0 -50z"/>
<path d="M8508 5128 c-6 -60 -3 -65 47 -66 l45 0 0 54 0 54 -44 0 -44 0 -4
-42z"/>
<path d="M3711 5064 c-1 -15 30 -106 35 -101 2 2 -5 28 -15 58 -11 30 -20 49
-20 43z"/>
<path d="M1260 4945 l0 -45 45 0 45 0 0 45 0 45 -45 0 -45 0 0 -45z"/>
<path d="M8890 4943 l0 -43 50 0 50 0 0 40 c0 22 -3 40 -7 41 -5 0 -27 2 -50
3 l-43 2 0 -43z"/>
<path d="M2020 4890 l0 -50 50 0 50 0 0 50 0 50 -50 0 -50 0 0 -50z"/>
<path d="M8120 4890 l0 -50 50 0 50 0 0 50 0 50 -50 0 -50 0 0 -50z"/>
<path d="M2470 4850 l0 -70 60 0 60 0 0 70 0 70 -60 0 -60 0 0 -70z"/>
<path d="M7650 4851 l0 -68 51 -6 c29 -4 56 -4 60 -1 5 3 9 36 9 75 l0 69 -60
0 -60 0 0 -69z"/>
<path d="M3773 4888 c1 -14 5 -24 10 -21 13 8 7 -14 -8 -27 -8 -7 -15 -17 -15
-22 0 -6 9 0 20 13 18 22 26 17 21 -13 0 -4 9 -12 22 -18 18 -9 20 -9 7 2 -8
7 -16 19 -18 27 -2 7 -11 30 -21 50 -18 33 -19 34 -18 9z"/>
<path d="M2780 4750 l0 -151 78 3 77 3 0 145 0 145 -77 3 -78 3 0 -151z"/>
<path d="M7305 4753 c4 -76 8 -139 9 -139 0 -1 34 -4 74 -6 l72 -4 0 143 0
143 -81 0 -81 0 7 -137z"/>
<path d="M1770 4700 l0 -50 45 0 45 0 0 50 0 50 -45 0 -45 0 0 -50z"/>
<path d="M3871 4710 c7 -18 15 -27 22 -23 8 5 8 8 -1 11 -7 2 -12 10 -12 17 0
8 -4 16 -10 20 -5 3 -5 -7 1 -25z"/>
<path d="M8380 4695 l0 -45 50 0 51 0 -2 45 -3 45 -48 0 -48 0 0 -45z"/>
<path d="M2187 4683 c-4 -3 -7 -28 -7 -55 l0 -48 50 0 50 0 0 55 0 55 -43 0
c-24 0 -47 -3 -50 -7z"/>
<path d="M7960 4642 l0 -49 43 -6 c23 -3 46 -2 50 2 5 5 7 28 5 52 l-3 44 -47
3 -48 3 0 -49z"/>
<path d="M3893 4664 c-5 -13 -8 -13 -15 -2 -8 11 -9 10 -6 -1 2 -8 11 -15 20
-17 12 -1 15 3 10 14 -5 15 -4 16 14 2 18 -14 18 -14 5 3 -17 21 -20 21 -28 1z"/>
<path d="M3840 4661 c0 -6 4 -13 10 -16 6 -3 7 1 4 9 -7 18 -14 21 -14 7z"/>
<path d="M3936 4629 c3 -6 1 -15 -6 -19 -8 -5 -3 -7 13 -7 23 0 24 1 9 18 -18
21 -27 25 -16 8z"/>
<path d="M3838 4608 c6 -6 18 -8 28 -6 14 3 12 5 -9 10 -19 3 -25 2 -19 -4z"/>
<path d="M1470 4481 l0 -51 46 0 45 0 -3 48 -3 47 -42 3 -43 3 0 -50z"/>
<path d="M8684 4521 c-2 -2 -4 -24 -4 -48 l0 -43 50 0 50 0 0 48 0 49 -46 -1
c-25 -1 -48 -3 -50 -5z"/>
<path d="M2989 4458 c-2 -97 3 -132 22 -169 25 -50 91 -104 142 -118 30 -8
231 -11 717 -9 l675 3 -99 52 c-118 63 -226 140 -321 228 l-70 65 -532 0 -533
0 -1 -52z"/>
<path d="M6115 4448 c-85 -86 -196 -166 -316 -229 l-104 -54 680 -3 c724 -2
734 -2 790 46 69 58 103 156 90 253 l-7 49 -536 -1 -537 0 -60 -61z"/>
<path d="M1874 4401 c-2 -2 -4 -24 -4 -48 l0 -43 50 0 50 0 0 48 0 48 -46 0
c-25 -1 -47 -3 -50 -5z"/>
<path d="M8272 4353 l3 -48 48 -3 47 -3 0 50 0 51 -51 0 -50 0 3 -47z"/>
<path d="M6319 3661 c-75 -24 -99 -63 -99 -161 0 -55 -2 -61 -25 -70 -18 -7
-25 -17 -25 -37 0 -48 11 -73 31 -73 18 0 19 -11 19 -225 l0 -226 68 3 67 3 3
222 2 222 68 3 67 3 3 58 3 57 -71 0 -71 0 3 53 3 52 68 3 68 3 -3 57 -3 57
-75 2 c-41 1 -87 -2 -101 -6z"/>
<path d="M2272 3268 l3 -393 65 0 65 0 3 138 3 137 142 0 c128 0 147 2 187 23
66 33 80 64 87 199 9 175 -16 246 -100 277 -17 7 -116 11 -243 11 l-214 0 2
-392z m389 262 c17 -10 19 -22 19 -120 0 -141 -1 -142 -156 -138 l-109 3 -3
133 -3 132 116 0 c64 0 125 -5 136 -10z"/>
<path d="M2924 3646 c-3 -7 -4 -35 -2 -62 l3 -49 64 -3 c72 -3 81 3 81 60 0
63 -5 68 -76 68 -46 0 -66 -4 -70 -14z"/>
<path d="M4332 3268 l3 -393 65 0 65 0 3 393 2 392 -70 0 -70 0 2 -392z"/>
<path d="M4595 3647 c-3 -6 -4 -183 -3 -392 l3 -380 70 0 70 0 3 137 3 136
152 4 c171 3 200 13 240 78 20 32 22 48 22 180 0 127 -2 149 -20 179 -39 66
-62 71 -313 71 -169 0 -224 -3 -227 -13z m396 -117 c17 -10 19 -22 19 -120 0
-140 0 -140 -157 -140 l-113 0 0 135 0 135 116 0 c63 0 124 -5 135 -10z"/>
<path d="M7690 3520 c0 -79 0 -80 -26 -80 -44 0 -64 -17 -64 -55 0 -41 22 -65
60 -65 l29 0 3 -195 3 -195 27 -27 c26 -26 34 -28 133 -31 l105 -4 0 56 0 56
-54 0 c-84 0 -86 4 -86 186 l0 154 48 0 c86 0 93 5 90 64 l-3 51 -67 3 -68 3
0 79 0 80 -65 0 -65 0 0 -80z"/>
<path d="M2926 3418 c-3 -13 -4 -140 -3 -283 l2 -260 66 -3 67 -3 6 43 c7 48
6 483 -1 511 -4 14 -16 17 -68 17 -59 0 -65 -2 -69 -22z"/>
<path d="M3150 3429 c0 -6 39 -69 86 -140 53 -78 84 -134 81 -143 -3 -8 -42
-69 -87 -135 -44 -66 -80 -125 -80 -131 0 -6 28 -10 69 -10 l69 0 58 85 c32
47 60 85 63 85 4 0 21 -25 39 -55 18 -30 44 -68 58 -85 24 -28 31 -30 89 -30
35 0 67 5 70 10 3 6 -34 69 -84 141 l-90 132 90 134 c49 73 87 138 84 143 -3
6 -37 10 -75 10 l-68 0 -54 -85 c-29 -46 -55 -84 -58 -84 -3 0 -30 37 -60 82
l-55 82 -72 3 c-51 2 -73 -1 -73 -9z"/>
<path d="M3809 3420 c-25 -13 -44 -35 -59 -65 -20 -42 -21 -57 -18 -212 5
-262 11 -268 283 -268 l180 0 3 53 3 52 -140 0 c-176 0 -191 5 -191 64 0 31 5
46 16 50 9 3 90 6 181 6 l165 0 -3 118 c-6 197 -34 222 -249 222 -113 -1 -141
-4 -171 -20z m269 -106 c17 -12 22 -25 22 -60 l0 -44 -121 0 -122 0 7 48 c3
26 14 52 23 60 25 18 163 16 191 -4z"/>
<path d="M5345 3433 c-35 -9 -72 -41 -89 -78 -15 -30 -17 -63 -14 -210 3 -193
8 -208 79 -250 30 -18 52 -20 204 -20 l170 0 3 52 3 52 -151 3 c-138 3 -153 5
-166 23 -8 11 -14 36 -12 55 l3 35 178 3 177 2 0 108 c0 133 -18 180 -79 211
-35 18 -57 21 -163 20 -68 -1 -132 -4 -143 -6z m237 -120 c12 -11 18 -30 18
-60 l0 -43 -115 0 -115 0 0 44 c0 66 15 76 112 76 62 0 86 -4 100 -17z"/>
<path d="M5835 3427 c-3 -7 -4 -134 -3 -282 l3 -270 65 0 65 0 3 210 c3 243
-1 235 99 235 l64 0 -3 58 -3 57 -62 0 c-45 0 -66 -5 -81 -18 -20 -18 -20 -18
-27 2 -5 18 -14 21 -61 21 -35 0 -56 -5 -59 -13z"/>
<path d="M6639 3417 c-19 -12 -44 -42 -57 -67 -22 -42 -23 -54 -20 -205 3
-180 13 -211 78 -250 32 -18 52 -20 210 -20 l175 0 3 53 c2 28 -1 52 -5 52 -4
1 -71 2 -149 3 -153 2 -167 7 -178 57 -11 60 -11 60 185 60 l179 0 0 108 c-1
200 -35 231 -256 232 -120 0 -134 -2 -165 -23z m269 -103 c17 -12 22 -25 22
-60 l0 -44 -120 0 -120 0 0 40 c0 64 24 80 118 80 54 0 84 -5 100 -16z"/>
<path d="M7232 3420 c-69 -31 -82 -71 -82 -262 0 -184 10 -224 69 -260 33 -21
47 -23 186 -23 l150 0 0 55 0 55 -122 3 c-97 2 -124 6 -135 19 -19 23 -19 273
0 296 11 13 38 17 130 19 l117 3 3 49 c2 32 -1 52 -10 57 -7 5 -69 9 -138 9
-102 0 -133 -4 -168 -20z"/>
</g>
</svg>
